<svg width="80" height="80" viewBox="0 0 80 80" fill="none" xmlns="http://www.w3.org/2000/svg">
<path d="M37.6005 64.6448L67.1841 35.0612C63.1577 33.3856 58.3889 30.6328 53.8789 26.1227C49.3681 21.6119 46.6149 16.8423 44.9393 12.8156L15.3553 42.3996C13.0468 44.7084 11.8923 45.8628 10.8996 47.1352C9.72853 48.6368 8.72457 50.2612 7.90537 51.98C7.21093 53.4372 6.69473 54.986 5.66225 58.0832L0.217798 74.4169C-0.290283 75.9409 0.106398 77.6213 1.24252 78.7577C2.37864 79.8937 4.05912 80.2905 5.58337 79.7825L21.9168 74.3377C25.0141 73.3053 26.5628 72.7893 28.02 72.0949C29.7388 71.2757 31.3633 70.2717 32.8649 69.1005C34.1373 68.1077 35.2921 66.9532 37.6005 64.6448Z" fill="white"/>
<path d="M75.393 26.8523C81.5358 20.7094 81.5358 10.7499 75.393 4.60714C69.2502 -1.53571 59.2905 -1.53571 53.1477 4.60714L49.5997 8.1553C49.6485 8.30202 49.6985 8.45074 49.7509 8.60143C51.0513 12.35 53.5053 17.2641 58.1213 21.8801C62.7374 26.4962 67.6514 28.95 71.4002 30.2505C71.5502 30.3026 71.6982 30.3527 71.8442 30.4011L75.393 26.8523Z" fill="white"/>
</svg>
