<svg width="94" height="82" viewBox="0 0 94 82" fill="none" xmlns="http://www.w3.org/2000/svg">
<path fill-rule="evenodd" clip-rule="evenodd" d="M57.1416 6.82392V21.0865C57.1407 21.6053 57.1397 22.3449 57.2386 22.9798C57.3599 23.7561 57.7592 25.2547 59.3111 26.1658C60.8056 27.0432 62.267 26.7173 62.962 26.5014C63.5675 26.3131 64.2317 25.9968 64.7271 25.7608L69.9691 23.2707L75.2111 25.7608C75.7065 25.9967 76.3702 26.3131 76.9761 26.5014C77.6707 26.7173 79.1326 27.0432 80.6271 26.1658C82.1785 25.2547 82.5778 23.7561 82.6991 22.9798C82.7984 22.345 82.7975 21.6054 82.7966 21.0866V0.0685489C83.3227 0.0438268 83.8391 0.0229295 84.3443 0.00534415C89.3437 -0.16883 93.2908 3.93755 93.2908 8.93999V61.2314C93.2908 66.4137 89.0648 70.6067 83.8923 70.9299C79.3705 71.213 74.0575 71.7658 69.9681 72.8452C64.9234 74.176 58.8996 77.0577 54.2374 79.5425C52.9356 80.2366 51.5577 80.739 50.1448 81.0506V10.0627C51.6407 9.69616 53.0937 9.11832 54.4529 8.33155C55.3126 7.83408 56.2143 7.32667 57.1416 6.82392ZM82.6921 45.7195C83.1604 47.5937 82.0208 49.4931 80.1466 49.9619L61.4885 54.6264C59.6138 55.0952 57.7144 53.9552 57.2461 52.081C56.7773 50.2068 57.9168 48.3074 59.7915 47.8386L78.4497 43.174C80.3239 42.7052 82.2233 43.8453 82.6921 45.7195Z" fill="white"/>
<path fill-rule="evenodd" clip-rule="evenodd" d="M43.1479 10.2497C41.5886 9.9535 40.0656 9.42814 38.6331 8.67066C34.033 6.23834 28.2168 3.48766 23.3227 2.19619C19.1875 1.10501 13.8013 0.55175 9.24698 0.271831C4.13418 -0.042419 0 4.11886 0 9.24132V61.2313C0 66.4137 4.22631 70.6066 9.3984 70.9299C13.9203 71.213 19.2333 71.7657 23.3227 72.8451C28.3672 74.1759 34.3913 77.0577 39.0534 79.5425C40.3557 80.2366 41.7346 80.7394 43.1479 81.051V10.2497ZM10.6005 27.0613C11.0691 25.1868 12.9685 24.0472 14.8429 24.5158L33.5011 29.1803C35.3755 29.6489 36.5152 31.5484 36.0465 33.4228C35.5779 35.297 33.6785 36.437 31.8041 35.9682L13.146 31.3037C11.2715 30.8351 10.1319 28.9357 10.6005 27.0613ZM14.8429 43.174C12.9685 42.7052 11.0691 43.8452 10.6005 45.7194C10.1319 47.5936 11.2715 49.493 13.146 49.9618L31.8041 54.6264C33.6785 55.0951 35.5779 53.9551 36.0465 52.0809C36.5152 50.2067 35.3755 48.3073 33.5011 47.8385L14.8429 43.174Z" fill="white"/>
<path d="M75.7997 0.626953C72.9072 0.968864 70.0641 1.46928 67.6358 2.19624C66.5093 2.53354 65.3334 2.96109 64.1383 3.45082V4.35397V18.2943L67.6334 16.634L67.6745 16.6133C67.9031 16.4964 68.8663 16.0039 69.969 16.0039C70.1905 16.0039 70.4065 16.0238 70.6122 16.0566C71.429 16.1868 72.0806 16.5199 72.2635 16.6133L72.3045 16.634L75.7997 18.2943V2.93889V0.626953Z" fill="white"/>
</svg>
