<svg width="40" height="40" viewBox="0 0 40 40" fill="none" xmlns="http://www.w3.org/2000/svg">
<path fill-rule="evenodd" clip-rule="evenodd" d="M16 8V32C16 34.8002 16 36.2004 15.455 37.27C14.9757 38.2108 14.2108 38.9756 13.27 39.455C12.2004 40 10.8003 40 8 40C5.19974 40 3.7996 40 2.73004 39.455C1.78924 38.9756 1.02434 38.2108 0.54496 37.27C0 36.2004 0 34.8002 0 32V8C0 5.19974 0 3.7996 0.54496 2.73004C1.02434 1.78924 1.78924 1.02434 2.73004 0.54496C3.7996 0 5.19974 0 8 0C10.8003 0 12.2004 0 13.27 0.54496C14.2108 1.02434 14.9757 1.78924 15.455 2.73004C16 3.7996 16 5.19974 16 8ZM10 35.5C10.8284 35.5 11.5 34.8284 11.5 34C11.5 33.1716 10.8284 32.5 10 32.5H6C5.17158 32.5 4.5 33.1716 4.5 34C4.5 34.8284 5.17158 35.5 6 35.5H10Z" fill="white"/>
<path d="M34.1198 17.2287L22.4438 29.4079C20.984 30.9305 20.2542 31.6917 19.627 31.4397C19 31.1877 19 30.1331 19 28.0237V11.5475C19.0024 10.2275 19.5266 8.96206 20.4582 8.02706L22.5678 5.91756L23.4282 5.25966C25.4366 3.72416 26.4408 2.95642 27.5346 2.72052C28.435 2.52636 29.3714 2.58464 30.2408 2.88892C31.2968 3.2586 32.198 4.14492 34.0006 5.91758C35.9998 7.9167 36.9994 8.91628 37.37 10.061C37.686 11.0373 37.694 12.0872 37.3928 13.0683C37.0398 14.2185 36.0664 15.2219 34.1198 17.2287Z" fill="white"/>
<path d="M21.5794 40H31.7988C34.599 40 35.9992 40 37.0688 39.455C38.0096 38.9756 38.7744 38.2108 39.2538 37.27C39.7988 36.2004 39.7988 34.8002 39.7988 32C39.7988 29.1998 39.7988 27.7996 39.2538 26.73C38.7744 25.7892 38.0096 25.0244 37.0688 24.545C35.9992 24 34.599 24 31.7988 24H31.3594L19.756 35.596C19.272 36.0798 19 36.6782 19 37.3626C19 38.7872 20.1548 40 21.5794 40Z" fill="white"/>
</svg>
