<svg width="92" height="94" viewBox="0 0 92 94" fill="none" xmlns="http://www.w3.org/2000/svg">
<path d="M3.51976 59.3144L5.93432 68.3258C8.75286 78.8443 10.1621 84.1041 13.357 87.5152C15.8796 90.2085 19.1442 92.0935 22.738 92.9312C27.2896 93.9924 32.5491 92.5833 43.0682 89.7645C53.5867 86.9462 58.8464 85.537 62.2576 82.3423C62.5408 82.0769 62.8146 81.8035 63.08 81.5222C61.5211 81.3916 59.9487 81.1407 58.3506 80.823C55.1036 80.1775 51.2456 79.1433 46.6827 77.9208L46.1845 77.7873L46.0689 77.7566C41.1044 76.4262 36.9563 75.3123 33.6443 74.1159C30.1612 72.8579 26.9965 71.3069 24.3092 68.7899C20.6057 65.3214 18.0141 60.8322 16.8619 55.8906C16.0258 52.305 16.2648 48.7884 16.9167 45.143C17.5414 41.6498 18.6632 37.4633 20.0074 32.4472L22.5001 23.1443L22.5878 22.8171C13.6293 25.2304 8.91398 26.6582 5.76943 29.6034C3.07603 32.126 1.19118 35.3906 0.353242 38.9844C-0.708034 43.5361 0.701216 48.7954 3.51976 59.3144Z" fill="white"/>
<path fill-rule="evenodd" clip-rule="evenodd" d="M87.83 40.6533L85.4152 49.6647C82.5969 60.1838 81.1872 65.443 77.9925 68.8542C75.4699 71.5475 72.2052 73.4324 68.6116 74.2702C68.1624 74.3752 67.7067 74.4558 67.2393 74.5132C62.9708 75.0398 57.7629 73.6442 48.2817 71.1039C37.7627 68.2851 32.5032 66.876 29.0921 63.6812C26.3987 61.1586 24.5139 57.8939 23.6759 54.2999C22.6147 49.7482 24.0239 44.489 26.8425 33.9701L29.257 24.9589C29.6623 23.4465 30.0386 22.0418 30.3951 20.7367C32.5178 12.9654 33.9443 8.68994 36.6796 5.76942C39.2022 3.07603 42.4669 1.19118 46.0609 0.353242C50.6121 -0.708034 55.8719 0.701216 66.3909 3.51976C76.9094 6.33831 82.1691 7.74756 85.5803 10.9424C88.2736 13.465 90.1585 16.7297 90.9963 20.3235C92.0575 24.8751 90.6483 30.1345 87.83 40.6533ZM42.2253 36.4109C42.7253 34.5446 44.6438 33.437 46.5101 33.9371L69.038 39.9737C70.9043 40.4737 72.0116 42.3918 71.5116 44.2581C71.0115 46.1244 69.0935 47.2317 67.2272 46.7317L44.6989 40.6953C42.8326 40.1953 41.7252 38.2772 42.2253 36.4109ZM38.6019 49.926C39.1019 48.0597 41.02 46.9523 42.8862 47.4524L56.4031 51.0744C58.2694 51.5744 59.3768 53.4925 58.8767 55.3588C58.3767 57.225 56.4586 58.3329 54.5924 57.8328L41.0755 54.2108C39.2092 53.7108 38.1014 51.7922 38.6019 49.926Z" fill="white"/>
</svg>
