<svg width="38" height="38" viewBox="0 0 38 38" fill="none" xmlns="http://www.w3.org/2000/svg">
<path d="M37.7761 16.072L37.5807 15.2585H19.5585V22.7415H30.3265C29.2086 27.9495 24.0208 30.6909 19.7833 30.6909C16.7001 30.6909 13.45 29.4186 11.2988 27.3736C10.1639 26.2774 9.26046 24.9723 8.6403 23.5331C8.02014 22.0939 7.69542 20.5489 7.68473 18.9864C7.68473 15.8345 9.12865 12.6817 11.2297 10.6078C13.3307 8.53388 16.5038 7.37353 19.6588 7.37353C23.2721 7.37353 25.8616 9.25571 26.83 10.1141L32.2503 4.82464C30.6602 3.45393 26.2922 0 19.4842 0C14.2316 0 9.19522 1.97379 5.51367 5.57362C1.88055 9.1183 0 14.2441 0 19C0 23.7559 1.77939 28.6255 5.30011 32.1982C9.06207 36.0084 14.3899 38 19.8759 38C24.8673 38 29.5985 36.0813 32.9705 32.6003C36.2855 29.1735 38 24.432 38 19.4614C38 17.3689 37.7856 16.1262 37.7761 16.072Z" fill="white"/>
</svg>
