<svg width="40" height="40" viewBox="0 0 40 40" fill="none" xmlns="http://www.w3.org/2000/svg">
<path fill-rule="evenodd" clip-rule="evenodd" d="M1.0384 11.6455C1.19209e-07 13.5426 0 15.831 0 20.4078V23.45C0 31.2516 2.38419e-07 35.1526 2.34314 37.5762C4.6863 40 8.45752 40 16 40H24C31.5424 40 35.3138 40 37.6568 37.5762C40 35.1526 40 31.2516 40 23.45V20.4078C40 15.831 40 13.5426 38.9616 11.6455C37.9232 9.74842 36.0262 8.57102 32.232 6.21624L28.232 3.73374C24.2212 1.24458 22.2158 0 20 0C17.7842 0 15.7788 1.24458 11.7681 3.73374L7.76806 6.21626C3.9739 8.57102 2.0768 9.74842 1.0384 11.6455ZM18.5 32C18.5 32.8284 19.1716 33.5 20 33.5C20.8284 33.5 21.5 32.8284 21.5 32V26C21.5 25.1716 20.8284 24.5 20 24.5C19.1716 24.5 18.5 25.1716 18.5 26V32Z" fill="white"/>
</svg>
