<svg width="37" height="40" viewBox="0 0 37 40" fill="none" xmlns="http://www.w3.org/2000/svg">
<path fill-rule="evenodd" clip-rule="evenodd" d="M13.4814 0.817392C12.069 2.07137 12.069 4.36518 12.069 8.9528V31.0472C12.069 35.6348 12.069 37.9286 13.4814 39.1826C14.8939 40.4366 17.0528 40.0594 21.3708 39.3052L26.0217 38.493C30.8038 37.6576 33.1948 37.24 34.6147 35.4834C36.0345 33.727 36.0345 31.1866 36.0345 26.1058V13.8942C36.0345 8.81342 36.0345 6.27304 34.6147 4.51652C33.1948 2.75997 30.8038 2.34235 26.0217 1.50707L21.3708 0.694711C17.0528 -0.0594895 14.8939 -0.43659 13.4814 0.817392ZM18.0603 16.3372C18.8876 16.3372 19.5582 17.04 19.5582 17.907V22.093C19.5582 22.96 18.8876 23.6628 18.0603 23.6628C17.2331 23.6628 16.5625 22.96 16.5625 22.093V17.907C16.5625 17.04 17.2331 16.3372 18.0603 16.3372Z" fill="white"/>
<path d="M9.13793 5C5.00164 5.006 2.84555 5.09652 1.47148 6.46408C-1.19781e-07 7.92858 0 10.2857 0 14.9998V25.0001C0 29.7143 -1.19781e-07 32.0713 1.47148 33.536C2.84555 34.9034 5.00164 34.994 9.13793 35C9.04284 33.7534 9.04298 32.3121 9.04316 30.7543V9.24551C9.04298 7.68783 9.04284 6.24663 9.13793 5Z" fill="white"/>
</svg>
