<svg width="340" height="325" viewBox="0 0 340 325" fill="none" xmlns="http://www.w3.org/2000/svg">
<g filter="url(#filter0_ddii_849_69)">
<circle cx="114.471" cy="79.6138" r="1.11377" stroke="#C70C00"/>
<circle cx="104.143" cy="81.5503" r="1.11377" stroke="#C70C00"/>
<path d="M90.4103 86.7144C90.4103 87.4394 89.9578 87.8281 89.6193 87.8281C89.2807 87.8281 88.8282 87.4394 88.8282 86.7144C88.8282 85.9894 89.2807 85.6006 89.6193 85.6006C89.9578 85.6006 90.4103 85.9894 90.4103 86.7144Z" stroke="#C70C00"/>
<path d="M83.3096 93.1694C83.3096 93.8944 82.8571 94.2832 82.5186 94.2832C82.18 94.2832 81.7275 93.8944 81.7275 93.1694C81.7275 92.4444 82.18 92.0557 82.5186 92.0557C82.8571 92.0557 83.3096 92.4444 83.3096 93.1694Z" stroke="#C70C00"/>
<circle cx="79.6138" cy="105.434" r="1.11377" stroke="#C70C00"/>
<circle cx="85.4233" cy="117.053" r="1.11377" stroke="#C70C00"/>
<path d="M100.093 118.667C100.093 119.006 99.7041 119.458 98.9791 119.458C98.2541 119.458 97.8654 119.006 97.8654 118.667C97.8654 118.328 98.2541 117.876 98.9791 117.876C99.7041 117.876 100.093 118.328 100.093 118.667Z" stroke="#C70C00"/>
<circle cx="102.207" cy="124.799" r="1.11377" stroke="#C70C00"/>
<circle cx="108.985" cy="127.704" r="0.79102" stroke="#C70C00"/>
<circle cx="114.471" cy="124.799" r="1.11377" stroke="#C70C00"/>
<circle cx="119.635" cy="129.318" r="1.11377" stroke="#C70C00"/>
<path d="M134.305 139.001C134.305 139.726 133.852 140.115 133.514 140.115C133.175 140.115 132.723 139.726 132.723 139.001C132.723 138.276 133.175 137.887 133.514 137.887C133.852 137.887 134.305 138.276 134.305 139.001Z" stroke="#C70C00"/>
<circle cx="125.445" cy="137.064" r="1.11377" stroke="#C70C00"/>
<circle cx="130.609" cy="135.128" r="1.11377" stroke="#C70C00"/>
<circle cx="142.551" cy="132.223" r="0.79102" stroke="#C70C00"/>
<circle cx="148.683" cy="124.799" r="1.11377" stroke="#C70C00"/>
<circle cx="143.842" cy="117.376" r="0.79102" stroke="#C70C00"/>
<path d="M152.379 118.344C152.379 119.069 151.927 119.458 151.588 119.458C151.25 119.458 150.797 119.069 150.797 118.344C150.797 117.619 151.25 117.23 151.588 117.23C151.927 117.23 152.379 117.619 152.379 118.344Z" stroke="#C70C00"/>
<path d="M152.379 97.688C152.379 98.413 151.927 98.8018 151.588 98.8018C151.25 98.8018 150.797 98.413 150.797 97.688C150.797 96.963 151.25 96.5742 151.588 96.5742C151.927 96.5742 152.379 96.963 152.379 97.688Z" stroke="#C70C00"/>
<path d="M147.861 89.6191C147.861 89.9577 147.472 90.4102 146.747 90.4102C146.022 90.4102 145.633 89.9577 145.633 89.6191C145.633 89.2806 146.022 88.8281 146.747 88.8281C147.472 88.8281 147.861 89.2806 147.861 89.6191Z" stroke="#C70C00"/>
<circle cx="158.366" cy="110.598" r="1.11377" stroke="#C70C00"/>
<path d="M138.178 82.8413C138.178 83.5663 137.725 83.9551 137.387 83.9551C137.048 83.9551 136.596 83.5663 136.596 82.8413C136.596 82.1163 137.048 81.7275 137.387 81.7275C137.725 81.7275 138.178 82.1163 138.178 82.8413Z" stroke="#C70C00"/>
<path d="M114.294 89.6191C114.294 89.9577 113.905 90.4102 113.18 90.4102C112.455 90.4102 112.067 89.9577 112.067 89.6191C112.067 89.2806 112.455 88.8281 113.18 88.8281C113.905 88.8281 114.294 89.2806 114.294 89.6191Z" stroke="#C70C00"/>
<path d="M100.093 88.3281C100.093 88.6666 99.7041 89.1191 98.9791 89.1191C98.2541 89.1191 97.8654 88.6666 97.8654 88.3281C97.8654 87.9896 98.2541 87.5371 98.9791 87.5371C99.7041 87.5371 100.093 87.9896 100.093 88.3281Z" stroke="#C70C00"/>
<circle cx="92.5239" cy="96.397" r="1.11377" stroke="#C70C00"/>
<circle cx="87.0371" cy="108.339" r="0.79102" stroke="#C70C00"/>
<circle cx="97.3652" cy="108.339" r="0.79102" stroke="#C70C00"/>
<circle cx="102.852" cy="100.916" r="1.11377" stroke="#C70C00"/>
<path d="M115.585 102.207C115.585 102.932 115.133 103.32 114.794 103.32C114.456 103.32 114.003 102.932 114.003 102.207C114.003 101.482 114.456 101.093 114.794 101.093C115.133 101.093 115.585 101.482 115.585 102.207Z" stroke="#C70C00"/>
<path d="M123.331 86.0689C123.331 86.7939 122.879 87.1826 122.54 87.1826C122.202 87.1826 121.749 86.7939 121.749 86.0689C121.749 85.3438 122.202 84.9551 122.54 84.9551C122.879 84.9551 123.331 85.3438 123.331 86.0689Z" stroke="#C70C00"/>
<path d="M129.786 94.4605C129.786 95.1855 129.334 95.5742 128.995 95.5742C128.657 95.5742 128.204 95.1855 128.204 94.4605C128.204 93.7355 128.657 93.3467 128.995 93.3467C129.334 93.3467 129.786 93.7355 129.786 94.4605Z" stroke="#C70C00"/>
<path d="M136.887 88.9736C136.887 89.3122 136.498 89.7647 135.773 89.7647C135.048 89.7647 134.659 89.3122 134.659 88.9736C134.659 88.6351 135.048 88.1826 135.773 88.1826C136.498 88.1826 136.887 88.6351 136.887 88.9736Z" stroke="#C70C00"/>
<circle cx="142.228" cy="95.106" r="1.11377" stroke="#C70C00"/>
<path d="M135.596 102.529C135.596 102.868 135.207 103.32 134.482 103.32C133.757 103.32 133.368 102.868 133.368 102.529C133.368 102.191 133.757 101.738 134.482 101.738C135.207 101.738 135.596 102.191 135.596 102.529Z" stroke="#C70C00"/>
<circle cx="150.297" cy="105.111" r="0.79102" stroke="#C70C00"/>
<path d="M143.342 108.339C143.342 108.677 142.953 109.13 142.228 109.13C141.503 109.13 141.115 108.677 141.115 108.339C141.115 108 141.503 107.548 142.228 107.548C142.953 107.548 143.342 108 143.342 108.339Z" stroke="#C70C00"/>
<circle cx="120.926" cy="97.0425" r="1.11377" stroke="#C70C00"/>
<circle cx="126.413" cy="106.402" r="0.79102" stroke="#C70C00"/>
<circle cx="116.408" cy="109.307" r="1.11377" stroke="#C70C00"/>
<circle cx="107.371" cy="107.371" r="1.11377" stroke="#C70C00"/>
<circle cx="108.985" cy="117.376" r="0.79102" stroke="#C70C00"/>
<circle cx="119.635" cy="118.344" r="1.11377" stroke="#C70C00"/>
<circle cx="127.381" cy="126.091" r="1.11377" stroke="#C70C00"/>
<circle cx="133.191" cy="111.244" r="1.11377" stroke="#C70C00"/>
<path d="M138.178 123.509C138.178 124.234 137.725 124.622 137.387 124.622C137.048 124.622 136.596 124.234 136.596 123.509C136.596 122.784 137.048 122.395 137.387 122.395C137.725 122.395 138.178 122.784 138.178 123.509Z" stroke="#C70C00"/>
<circle cx="128.027" cy="118.344" r="1.11377" stroke="#C70C00"/>
<path d="M128.495 79.6138C128.495 80.3388 128.043 80.7275 127.704 80.7275C127.366 80.7275 126.913 80.3388 126.913 79.6138C126.913 78.8888 127.366 78.5 127.704 78.5C128.043 78.5 128.495 78.8888 128.495 79.6138Z" stroke="#C70C00"/>
<path d="M91.2103 86.128L103.342 81.8549M105.684 80.7866L113.346 79.291M116.326 79.291H126.329M129.309 79.291L136.546 81.8549M138.674 83.5641L145.698 88.4782M147.827 90.6147L151.232 96.597M152.722 98.9472L158.043 109.203M158.043 111.767L152.722 117.108M150.381 118.39L145.273 117.535L148.465 123.304M148.465 125.868L143.996 131.636M141.654 133.132L132.076 135.055M131.225 136.55L132.928 138.26M132.928 139.969L126.755 137.619M125.052 135.909L120.796 130.141M118.454 128.859L115.474 125.654M113.559 125.227L110.366 127.791M107.812 127.363L103.555 125.227M101.001 124.158L99.5112 119.885M98.0213 118.817L86.7405 117.749M84.6121 116.253L79.7167 106.639M79.291 104.075L82.058 94.0332M83.335 91.8966L88.6561 86.9826M90.5717 87.8372L92.7002 95.1015M91.636 96.3834L83.9736 93.6059M93.9772 95.5288L98.447 89.3328M98.0213 87.8372L91.2103 86.9826M100.15 87.1962L104.832 82.7095L112.495 88.6918M112.069 89.9737L100.575 88.6918M99.9369 89.5464L102.917 99.3746M101.852 100.443L93.9772 97.0244M80.9938 105.571L86.102 107.921M87.3791 107.066L83.1222 94.2468M92.7002 97.6653L88.0176 107.066M88.6561 108.775L96.3185 108.348M97.1699 107.066L93.3387 97.6653M98.447 107.493L102.491 101.725M103.981 101.725L106.748 105.998M104.407 100.443L113.346 90.8284L115.049 100.443M113.772 101.725L104.407 101.084M108.663 106.639L115.049 103.22M98.8726 108.775L106.109 107.493M114.623 80.5729L114.197 88.4782M115.687 80.1456L121.647 84.846M122.073 86.7689L114.623 89.9737M123.775 84.846L127.607 80.5729L134.63 87.8372L123.775 86.7689L128.458 93.1786M128.032 94.8878L122.285 96.8107M113.985 90.6147L119.731 96.1697M123.35 86.7689L121.434 95.7424M137.185 83.9914L136.546 87.4099M145.698 89.9737L137.185 89.3328M134.843 89.5464L130.161 93.6059M136.12 89.9737L141.229 94.2468M141.016 95.3151H130.161M146.55 90.6147L143.357 94.2468M143.357 95.7424L150.381 97.879M151.232 98.9472L150.381 103.648M149.104 104.93L135.695 103.22M135.269 101.297L141.867 96.1697M135.695 102.152L150.807 98.5199M128.884 95.3151L133.566 101.297M121.647 97.879L133.353 102.366M115.9 101.084L120.157 97.879M115.687 103.007L116.752 107.921M116.326 102.366L125.265 105.998M133.992 103.434L127.607 105.998M121.008 98.0926L126.542 104.93M126.329 107.493L118.029 109.203M107.812 108.348L115.474 109.416M87.1662 109.63L86.102 115.612M88.0176 109.416L98.6598 117.535M97.8084 109.63L99.2983 117.322M106.748 108.348L99.9369 117.535M100.575 118.817L107.812 117.749M107.174 108.348L108.238 116.253M110.153 116.681L116.326 110.485M109.728 118.39L118.454 117.749M117.39 110.485L119.518 116.894M126.968 107.493L120.157 116.894M121.008 118.39L126.968 118.176M127.607 107.066L128.032 116.894" stroke="#C70C00"/>
<path d="M127.506 106.775L131.775 111.417M133.27 110.362L134.551 104.031M134.337 111.417L140.955 109.307M141.382 107.619L135.191 103.82M143.303 108.252L149.28 106.353M151.415 105.72L156.752 110.784M150.348 106.775L151.415 117.115M149.707 106.353L144.584 116.482M142.449 109.94L142.876 116.482M142.449 117.537L133.697 112.684M132.202 112.684L129.214 117.959M129.214 119.015L136.258 122.602M136.258 124.29L128.36 125.768M127.506 119.648L127.079 124.712M138.607 123.657L147.146 124.712M142.876 118.593L138.393 122.391M133.27 113.106L137.112 121.969M137.539 124.712L141.595 131.254M127.079 127.245L130.495 133.787M127.933 126.823L141.168 132.521M102.529 123.446L107.653 118.17M108.507 118.804L108.934 126.401M109.361 118.804L113.417 123.446M114.911 123.446L118.967 119.648H119.607V128.089M120.248 128.3L126.652 119.015M120.675 129.144L125.798 126.401L125.585 135.686M126.652 136.741L129.427 135.897" stroke="#C70C00"/>
</g>
<defs>
<filter id="filter0_ddii_849_69" x="-102" y="-98" width="441.98" height="422.615" filterUnits="userSpaceOnUse" color-interpolation-filters="sRGB">
<feFlood flood-opacity="0" result="BackgroundImageFix"/>
<feColorMatrix in="SourceAlpha" type="matrix" values="0 0 0 0 0 0 0 0 0 0 0 0 0 0 0 0 0 0 127 0" result="hardAlpha"/>
<feOffset dy="4"/>
<feComposite in2="hardAlpha" operator="out"/>
<feColorMatrix type="matrix" values="0 0 0 0 0.778906 0 0 0 0 0.0454071 0 0 0 0 0 0 0 0 0.15 0"/>
<feBlend mode="normal" in2="BackgroundImageFix" result="effect1_dropShadow_849_69"/>
<feColorMatrix in="SourceAlpha" type="matrix" values="0 0 0 0 0 0 0 0 0 0 0 0 0 0 0 0 0 0 127 0" result="hardAlpha"/>
<feOffset dy="4"/>
<feGaussianBlur stdDeviation="90"/>
<feComposite in2="hardAlpha" operator="out"/>
<feColorMatrix type="matrix" values="0 0 0 0 0.778906 0 0 0 0 0.0454071 0 0 0 0 0 0 0 0 1 0"/>
<feBlend mode="normal" in2="effect1_dropShadow_849_69" result="effect2_dropShadow_849_69"/>
<feBlend mode="normal" in="SourceGraphic" in2="effect2_dropShadow_849_69" result="shape"/>
<feColorMatrix in="SourceAlpha" type="matrix" values="0 0 0 0 0 0 0 0 0 0 0 0 0 0 0 0 0 0 127 0" result="hardAlpha"/>
<feOffset dy="1"/>
<feComposite in2="hardAlpha" operator="arithmetic" k2="-1" k3="1"/>
<feColorMatrix type="matrix" values="0 0 0 0 0.778906 0 0 0 0 0.0454071 0 0 0 0 0 0 0 0 0.4 0"/>
<feBlend mode="normal" in2="shape" result="effect3_innerShadow_849_69"/>
<feColorMatrix in="SourceAlpha" type="matrix" values="0 0 0 0 0 0 0 0 0 0 0 0 0 0 0 0 0 0 127 0" result="hardAlpha"/>
<feOffset dy="-4"/>
<feComposite in2="hardAlpha" operator="arithmetic" k2="-1" k3="1"/>
<feColorMatrix type="matrix" values="0 0 0 0 0 0 0 0 0 0 0 0 0 0 0 0 0 0 0.2 0"/>
<feBlend mode="normal" in2="effect3_innerShadow_849_69" result="effect4_innerShadow_849_69"/>
</filter>
</defs>
</svg>
